<svg version="1.1" viewBox="0.0 0.0 680.9133858267717 625.2519685039371" fill="none" stroke="none" stroke-linecap="square" stroke-miterlimit="10" xmlns:xlink="http://www.w3.org/1999/xlink" xmlns="http://www.w3.org/2000/svg"><clipPath id="p.0"><path d="m0 0l680.9134 0l0 625.25195l-680.9134 0l0 -625.25195z" clip-rule="nonzero"/></clipPath><g clip-path="url(#p.0)"><path fill="#000000" fill-opacity="0.0" d="m0 0l680.9134 0l0 625.25195l-680.9134 0z" fill-rule="evenodd"/><path fill="#ffe599" d="m333.2861 166.91733l0 0c0 -79.86821 64.74597 -144.61418 144.61417 -144.61418l0 0c38.354065 0 75.13727 15.236092 102.25763 42.35651c27.120422 27.120415 42.356567 63.903603 42.356567 102.25767l0 0c0 79.868195 -64.74597 144.61417 -144.6142 144.61417l0 0c-79.868195 0 -144.61417 -64.74597 -144.61417 -144.61417z" fill-rule="evenodd"/><path stroke="#ffe599" stroke-width="1.0" stroke-linejoin="round" stroke-linecap="butt" d="m333.2861 166.91733l0 0c0 -79.86821 64.74597 -144.61418 144.61417 -144.61418l0 0c38.354065 0 75.13727 15.236092 102.25763 42.35651c27.120422 27.120415 42.356567 63.903603 42.356567 102.25767l0 0c0 79.868195 -64.74597 144.61417 -144.6142 144.61417l0 0c-79.868195 0 -144.61417 -64.74597 -144.61417 -144.61417z" fill-rule="evenodd"/><path fill="#d9d9d9" d="m58.39895 297.82285l0 0c0 -56.75923 46.012436 -102.77167 102.77166 -102.77167l0 0c27.25673 0 53.39711 10.827698 72.67053 30.10112c19.273422 19.273422 30.10112 45.413803 30.10112 72.67055l0 0c0 56.759216 -46.012436 102.77164 -102.77165 102.77164l0 0c-56.759224 0 -102.77166 -46.01242 -102.77166 -102.77164z" fill-rule="evenodd"/><path stroke="#d9d9d9" stroke-width="1.0" stroke-linejoin="round" stroke-linecap="butt" d="m58.39895 297.82285l0 0c0 -56.75923 46.012436 -102.77167 102.77166 -102.77167l0 0c27.25673 0 53.39711 10.827698 72.67053 30.10112c19.273422 19.273422 30.10112 45.413803 30.10112 72.67055l0 0c0 56.759216 -46.012436 102.77164 -102.77165 102.77164l0 0c-56.759224 0 -102.77166 -46.01242 -102.77166 -102.77164z" fill-rule="evenodd"/><path fill="#d9d9d9" d="m301.36746 276.83072l0 0c0 -68.35286 55.41092 -123.763794 123.76376 -123.763794l0 0c32.82419 0 64.304016 13.039368 87.51422 36.249573c23.210205 23.21022 36.249573 54.690018 36.249573 87.51422l0 0c0 68.352844 -55.41095 123.76376 -123.763794 123.76376l0 0c-68.352844 0 -123.76376 -55.41092 -123.76376 -123.76376z" fill-rule="evenodd"/><path stroke="#d9d9d9" stroke-width="1.0" stroke-linejoin="round" stroke-linecap="butt" d="m301.36746 276.83072l0 0c0 -68.35286 55.41092 -123.763794 123.76376 -123.763794l0 0c32.82419 0 64.304016 13.039368 87.51422 36.249573c23.210205 23.21022 36.249573 54.690018 36.249573 87.51422l0 0c0 68.352844 -55.41095 123.76376 -123.763794 123.76376l0 0c-68.352844 0 -123.76376 -55.41092 -123.76376 -123.76376z" fill-rule="evenodd"/><path fill="#d9d9d9" d="m137.83464 255.98032l0 0c0 -79.86821 64.74597 -144.61417 144.61418 -144.61417l0 0c38.354065 0 75.13724 15.236092 102.25766 42.356514c27.120422 27.120407 42.356506 63.903595 42.356506 102.25766l0 0c0 79.868195 -64.74597 144.61417 -144.61417 144.61417l0 0c-79.86821 0 -144.61418 -64.74597 -144.61418 -144.61417z" fill-rule="evenodd"/><path stroke="#d9d9d9" stroke-width="1.0" stroke-linejoin="round" stroke-linecap="butt" d="m137.83464 255.98032l0 0c0 -79.86821 64.74597 -144.61417 144.61418 -144.61417l0 0c38.354065 0 75.13724 15.236092 102.25766 42.356514c27.120422 27.120407 42.356506 63.903595 42.356506 102.25766l0 0c0 79.868195 -64.74597 144.61417 -144.61417 144.61417l0 0c-79.86821 0 -144.61418 -64.74597 -144.61418 -144.61417z" fill-rule="evenodd"/><path fill="#d9d9d9" d="m437.15747 316.9882l0 0c0 -46.1745 37.431824 -83.60629 83.60632 -83.60629l0 0c22.173767 0 43.43933 8.808487 59.11859 24.487701c15.679199 15.67923 24.48767 36.944824 24.48767 59.11859l0 0c0 46.17447 -37.431763 83.60629 -83.60626 83.60629l0 0c-46.1745 0 -83.60632 -37.431824 -83.60632 -83.60629z" fill-rule="evenodd"/><path stroke="#d9d9d9" stroke-width="1.0" stroke-linejoin="round" stroke-linecap="butt" d="m437.15747 316.9882l0 0c0 -46.1745 37.431824 -83.60629 83.60632 -83.60629l0 0c22.173767 0 43.43933 8.808487 59.11859 24.487701c15.679199 15.67923 24.48767 36.944824 24.48767 59.11859l0 0c0 46.17447 -37.431763 83.60629 -83.60626 83.60629l0 0c-46.1745 0 -83.60632 -37.431824 -83.60632 -83.60629z" fill-rule="evenodd"/><path fill="#d9d9d9" d="m131.5328 292.3587l0 0c0 -11.956268 9.692474 -21.648743 21.648727 -21.648743l361.49 0c5.741577 0 11.247986 2.2808533 15.307922 6.34079c4.0599365 4.059906 6.3407593 9.566345 6.3407593 15.307953l0 86.592316c0 11.956268 -9.692444 21.648712 -21.648682 21.648712l-361.49 0c-11.956253 0 -21.648727 -9.692444 -21.648727 -21.648712z" fill-rule="evenodd"/><path stroke="#d9d9d9" stroke-width="1.0" stroke-linejoin="round" stroke-linecap="butt" d="m131.5328 292.3587l0 0c0 -11.956268 9.692474 -21.648743 21.648727 -21.648743l361.49 0c5.741577 0 11.247986 2.2808533 15.307922 6.34079c4.0599365 4.059906 6.3407593 9.566345 6.3407593 15.307953l0 86.592316c0 11.956268 -9.692444 21.648712 -21.648682 21.648712l-361.49 0c-11.956253 0 -21.648727 -9.692444 -21.648727 -21.648712z" fill-rule="evenodd"/><path fill="#cfe2f3" d="m174.59128 476.1265l0 0c5.438446 -19.768463 25.236893 -31.56012 44.221085 -26.337433l0 0c9.116531 2.5080261 16.822205 8.684448 21.421875 17.170563c4.599655 8.4861145 5.716507 18.586731 3.1048737 28.079895l0 0c-5.438446 19.768463 -25.236893 31.56009 -44.221085 26.337433l0 0c-18.984192 -5.2227173 -29.965195 -25.482025 -24.526749 -45.250458z" fill-rule="evenodd"/><path stroke="#cfe2f3" stroke-width="1.0" stroke-linejoin="round" stroke-linecap="butt" d="m174.59128 476.1265l0 0c5.438446 -19.768463 25.236893 -31.56012 44.221085 -26.337433l0 0c9.116531 2.5080261 16.822205 8.684448 21.421875 17.170563c4.599655 8.4861145 5.716507 18.586731 3.1048737 28.079895l0 0c-5.438446 19.768463 -25.236893 31.56009 -44.221085 26.337433l0 0c-18.984192 -5.2227173 -29.965195 -25.482025 -24.526749 -45.250458z" fill-rule="evenodd"/><path fill="#cfe2f3" d="m208.45644 430.66525l0 0c2.5645142 -9.321899 11.144012 -15.090393 19.162842 -12.884369l0 0c3.8507843 1.0593872 7.0546265 3.8536682 8.906723 7.7681274c1.8520966 3.9144897 2.2007294 8.628479 0.96920776 13.105011l0 0c-2.5645142 9.321869 -11.144028 15.090393 -19.162857 12.884338l0 0c-8.018829 -2.2060242 -12.44043 -11.551239 -9.875916 -20.873108z" fill-rule="evenodd"/><path stroke="#cfe2f3" stroke-width="1.0" stroke-linejoin="round" stroke-linecap="butt" d="m208.45644 430.66525l0 0c2.5645142 -9.321899 11.144012 -15.090393 19.162842 -12.884369l0 0c3.8507843 1.0593872 7.0546265 3.8536682 8.906723 7.7681274c1.8520966 3.9144897 2.2007294 8.628479 0.96920776 13.105011l0 0c-2.5645142 9.321869 -11.144028 15.090393 -19.162857 12.884338l0 0c-8.018829 -2.2060242 -12.44043 -11.551239 -9.875916 -20.873108z" fill-rule="evenodd"/><path fill="#cfe2f3" d="m179.35487 469.52103l0 0c-1.0799408 -0.91329956 -1.2418518 -2.551117 -0.36164856 -3.6581726l35.18463 -44.252655c0.42268372 -0.5316467 1.0340881 -0.86727905 1.6996918 -0.93307495c0.66560364 -0.0657959 1.3308868 0.14361572 1.8494873 0.58221436l7.8214264 6.6144104c1.079956 0.91329956 1.2418671 2.551117 0.36164856 3.6581726l-35.184616 44.252655l0 0c-0.8802185 1.1070862 -2.4692383 1.2641602 -3.5491943 0.3508911z" fill-rule="evenodd"/><path stroke="#cfe2f3" stroke-width="1.0" stroke-linejoin="round" stroke-linecap="butt" d="m179.35487 469.52103l0 0c-1.0799408 -0.91329956 -1.2418518 -2.551117 -0.36164856 -3.6581726l35.18463 -44.252655c0.42268372 -0.5316467 1.0340881 -0.86727905 1.6996918 -0.93307495c0.66560364 -0.0657959 1.3308868 0.14361572 1.8494873 0.58221436l7.8214264 6.6144104c1.079956 0.91329956 1.2418671 2.551117 0.36164856 3.6581726l-35.184616 44.252655l0 0c-0.8802185 1.1070862 -2.4692383 1.2641602 -3.5491943 0.3508911z" fill-rule="evenodd"/><path fill="#cfe2f3" d="m242.63199 486.95425l0 0c1.3951263 -0.23236084 2.3719177 -1.5568848 2.181717 -2.958374l-7.6063995 -56.048645c-0.09133911 -0.67300415 -0.44506836 -1.2741394 -0.98339844 -1.6711426c-0.5383148 -0.39700317 -1.2171326 -0.557312 -1.887085 -0.44573975l-10.104111 1.6829834c-1.3951263 0.23239136 -2.3719177 1.5569153 -2.181717 2.9584045l7.6063995 56.048615l0 0c0.1902008 1.4015198 1.475357 2.3492737 2.8704834 2.1168823z" fill-rule="evenodd"/><path stroke="#cfe2f3" stroke-width="1.0" stroke-linejoin="round" stroke-linecap="butt" d="m242.63199 486.95425l0 0c1.3951263 -0.23236084 2.3719177 -1.5568848 2.181717 -2.958374l-7.6063995 -56.048645c-0.09133911 -0.67300415 -0.44506836 -1.2741394 -0.98339844 -1.6711426c-0.5383148 -0.39700317 -1.2171326 -0.557312 -1.887085 -0.44573975l-10.104111 1.6829834c-1.3951263 0.23239136 -2.3719177 1.5569153 -2.181717 2.9584045l7.6063995 56.048615l0 0c0.1902008 1.4015198 1.475357 2.3492737 2.8704834 2.1168823z" fill-rule="evenodd"/><path fill="#cfe2f3" d="m204.56174 444.82462l0 0c2.3192139 -8.430237 10.69986 -13.475922 18.718704 -11.269867l0 0c3.850769 1.0593567 7.10141 3.6835632 9.036804 7.2952576c1.9353943 3.6116943 2.3970032 7.915039 1.2832642 11.963379l0 0c-2.3192139 8.430206 -10.699844 13.475891 -18.718689 11.269867l0 0c-8.018829 -2.2060547 -12.639282 -10.82843 -10.320084 -19.258636z" fill-rule="evenodd"/><path stroke="#cfe2f3" stroke-width="1.0" stroke-linejoin="round" stroke-linecap="butt" d="m204.56174 444.82462l0 0c2.3192139 -8.430237 10.69986 -13.475922 18.718704 -11.269867l0 0c3.850769 1.0593567 7.10141 3.6835632 9.036804 7.2952576c1.9353943 3.6116943 2.3970032 7.915039 1.2832642 11.963379l0 0c-2.3192139 8.430206 -10.699844 13.475891 -18.718689 11.269867l0 0c-8.018829 -2.2060547 -12.639282 -10.82843 -10.320084 -19.258636z" fill-rule="evenodd"/><path fill="#cfe2f3" d="m311.6691 468.4024l0 0c5.438446 -19.768463 25.236908 -31.56012 44.2211 -26.337433l0 0c9.116516 2.5080261 16.822205 8.684479 21.421875 17.170563c4.59964 8.4861145 5.7164917 18.586761 3.1048584 28.079895l0 0c-5.4384155 19.768463 -25.236877 31.56012 -44.22107 26.337402l0 0c-18.984192 -5.2226562 -29.96521 -25.481995 -24.526764 -45.250427z" fill-rule="evenodd"/><path stroke="#cfe2f3" stroke-width="1.0" stroke-linejoin="round" stroke-linecap="butt" d="m311.6691 468.4024l0 0c5.438446 -19.768463 25.236908 -31.56012 44.2211 -26.337433l0 0c9.116516 2.5080261 16.822205 8.684479 21.421875 17.170563c4.59964 8.4861145 5.7164917 18.586761 3.1048584 28.079895l0 0c-5.4384155 19.768463 -25.236877 31.56012 -44.22107 26.337402l0 0c-18.984192 -5.2226562 -29.96521 -25.481995 -24.526764 -45.250427z" fill-rule="evenodd"/><path fill="#cfe2f3" d="m345.53427 422.94116l0 0c2.5645142 -9.321869 11.144012 -15.090393 19.162842 -12.884369l0 0c3.850769 1.0593872 7.0546265 3.8536682 8.906708 7.768158c1.8521118 3.9144592 2.2007446 8.628479 0.96920776 13.10498l0 0c-2.5645142 9.321869 -11.144012 15.090393 -19.162842 12.884369l0 0c-8.018829 -2.2060547 -12.44043 -11.55127 -9.875916 -20.873138z" fill-rule="evenodd"/><path stroke="#cfe2f3" stroke-width="1.0" stroke-linejoin="round" stroke-linecap="butt" d="m345.53427 422.94116l0 0c2.5645142 -9.321869 11.144012 -15.090393 19.162842 -12.884369l0 0c3.850769 1.0593872 7.0546265 3.8536682 8.906708 7.768158c1.8521118 3.9144592 2.2007446 8.628479 0.96920776 13.10498l0 0c-2.5645142 9.321869 -11.144012 15.090393 -19.162842 12.884369l0 0c-8.018829 -2.2060547 -12.44043 -11.55127 -9.875916 -20.873138z" fill-rule="evenodd"/><path fill="#cfe2f3" d="m316.4327 461.79694l0 0c-1.079956 -0.91326904 -1.2418518 -2.5510864 -0.3616333 -3.6581726l35.1846 -44.252655c0.42269897 -0.5316162 1.0340881 -0.86724854 1.699707 -0.93307495c0.6655884 -0.0657959 1.3308716 0.14364624 1.8494873 0.58221436l7.821411 6.6144104c1.079956 0.91329956 1.2418823 2.551117 0.36166382 3.6582031l-35.18463 44.252655l0 0c-0.8802185 1.1070557 -2.4692383 1.2641602 -3.5491943 0.3508606z" fill-rule="evenodd"/><path stroke="#cfe2f3" stroke-width="1.0" stroke-linejoin="round" stroke-linecap="butt" d="m316.4327 461.79694l0 0c-1.079956 -0.91326904 -1.2418518 -2.5510864 -0.3616333 -3.6581726l35.1846 -44.252655c0.42269897 -0.5316162 1.0340881 -0.86724854 1.699707 -0.93307495c0.6655884 -0.0657959 1.3308716 0.14364624 1.8494873 0.58221436l7.821411 6.6144104c1.079956 0.91329956 1.2418823 2.551117 0.36166382 3.6582031l-35.18463 44.252655l0 0c-0.8802185 1.1070557 -2.4692383 1.2641602 -3.5491943 0.3508606z" fill-rule="evenodd"/><path fill="#cfe2f3" d="m379.7098 479.2302l0 0c1.3951416 -0.23239136 2.3719177 -1.5569153 2.1817322 -2.9584045l-7.606415 -56.048615c-0.09133911 -0.67303467 -0.44506836 -1.2741699 -0.98339844 -1.6711731c-0.53829956 -0.39697266 -1.217102 -0.557312 -1.887085 -0.44570923l-10.104095 1.6829529c-1.3951416 0.23239136 -2.3719177 1.5569153 -2.1817322 2.9584045l7.606415 56.048645l0 0c0.19018555 1.4014893 1.4753418 2.3492432 2.8704834 2.1168823z" fill-rule="evenodd"/><path stroke="#cfe2f3" stroke-width="1.0" stroke-linejoin="round" stroke-linecap="butt" d="m379.7098 479.2302l0 0c1.3951416 -0.23239136 2.3719177 -1.5569153 2.1817322 -2.9584045l-7.606415 -56.048615c-0.09133911 -0.67303467 -0.44506836 -1.2741699 -0.98339844 -1.6711731c-0.53829956 -0.39697266 -1.217102 -0.557312 -1.887085 -0.44570923l-10.104095 1.6829529c-1.3951416 0.23239136 -2.3719177 1.5569153 -2.1817322 2.9584045l7.606415 56.048645l0 0c0.19018555 1.4014893 1.4753418 2.3492432 2.8704834 2.1168823z" fill-rule="evenodd"/><path fill="#cfe2f3" d="m341.6396 437.10052l0 0c2.3192139 -8.430206 10.699829 -13.475891 18.718689 -11.269867l0 0c3.850769 1.0593872 7.10141 3.6835632 9.036804 7.2952576c1.9353943 3.6116943 2.3970032 7.915039 1.2832642 11.963379l0 0c-2.3192139 8.430206 -10.69986 13.475922 -18.718689 11.269867l0 0c-8.018829 -2.2060242 -12.639282 -10.82843 -10.320068 -19.258636z" fill-rule="evenodd"/><path stroke="#cfe2f3" stroke-width="1.0" stroke-linejoin="round" stroke-linecap="butt" d="m341.6396 437.10052l0 0c2.3192139 -8.430206 10.699829 -13.475891 18.718689 -11.269867l0 0c3.850769 1.0593872 7.10141 3.6835632 9.036804 7.2952576c1.9353943 3.6116943 2.3970032 7.915039 1.2832642 11.963379l0 0c-2.3192139 8.430206 -10.69986 13.475922 -18.718689 11.269867l0 0c-8.018829 -2.2060242 -12.639282 -10.82843 -10.320068 -19.258636z" fill-rule="evenodd"/><path fill="#cfe2f3" d="m236.6175 548.24274l0 0c5.438446 -19.768433 25.236908 -31.56012 44.2211 -26.337402l0 0c9.116516 2.5079956 16.822205 8.684448 21.421844 17.170532c4.5996704 8.486145 5.716522 18.586792 3.104889 28.079895l0 0c-5.438446 19.768433 -25.236908 31.56012 -44.2211 26.337463l0 0c-18.984177 -5.2227173 -29.96518 -25.482056 -24.526733 -45.25049z" fill-rule="evenodd"/><path stroke="#cfe2f3" stroke-width="1.0" stroke-linejoin="round" stroke-linecap="butt" d="m236.6175 548.24274l0 0c5.438446 -19.768433 25.236908 -31.56012 44.2211 -26.337402l0 0c9.116516 2.5079956 16.822205 8.684448 21.421844 17.170532c4.5996704 8.486145 5.716522 18.586792 3.104889 28.079895l0 0c-5.438446 19.768433 -25.236908 31.56012 -44.2211 26.337463l0 0c-18.984177 -5.2227173 -29.96518 -25.482056 -24.526733 -45.25049z" fill-rule="evenodd"/><path fill="#cfe2f3" d="m270.48264 502.7815l0 0c2.5645142 -9.321869 11.144012 -15.090393 19.162872 -12.884338l0 0c3.850769 1.0593872 7.0546265 3.8536377 8.906708 7.7681274c1.8520813 3.9144592 2.200714 8.628479 0.96920776 13.105011l0 0c-2.5645142 9.321869 -11.144012 15.090363 -19.162842 12.884308l0 0c-8.01886 -2.2059937 -12.44046 -11.5512085 -9.875946 -20.873108z" fill-rule="evenodd"/><path stroke="#cfe2f3" stroke-width="1.0" stroke-linejoin="round" stroke-linecap="butt" d="m270.48264 502.7815l0 0c2.5645142 -9.321869 11.144012 -15.090393 19.162872 -12.884338l0 0c3.850769 1.0593872 7.0546265 3.8536377 8.906708 7.7681274c1.8520813 3.9144592 2.200714 8.628479 0.96920776 13.105011l0 0c-2.5645142 9.321869 -11.144012 15.090363 -19.162842 12.884308l0 0c-8.01886 -2.2059937 -12.44046 -11.5512085 -9.875946 -20.873108z" fill-rule="evenodd"/><path fill="#cfe2f3" d="m241.38109 541.63727l0 0c-1.0799408 -0.91326904 -1.2418518 -2.5510864 -0.3616333 -3.658142l35.184616 -44.252655c0.42269897 -0.5316467 1.0340881 -0.86727905 1.699707 -0.93307495c0.6655884 -0.0657959 1.3308716 0.14361572 1.8494873 0.58218384l7.821411 6.614441c1.079956 0.91326904 1.2418518 2.551117 0.36166382 3.6581726l-35.18463 44.252686l0 0c-0.8802185 1.1070557 -2.4692383 1.2641602 -3.5491943 0.35083008z" fill-rule="evenodd"/><path stroke="#cfe2f3" stroke-width="1.0" stroke-linejoin="round" stroke-linecap="butt" d="m241.38109 541.63727l0 0c-1.0799408 -0.91326904 -1.2418518 -2.5510864 -0.3616333 -3.658142l35.184616 -44.252655c0.42269897 -0.5316467 1.0340881 -0.86727905 1.699707 -0.93307495c0.6655884 -0.0657959 1.3308716 0.14361572 1.8494873 0.58218384l7.821411 6.614441c1.079956 0.91326904 1.2418518 2.551117 0.36166382 3.6581726l-35.18463 44.252686l0 0c-0.8802185 1.1070557 -2.4692383 1.2641602 -3.5491943 0.35083008z" fill-rule="evenodd"/><path fill="#cfe2f3" d="m304.6582 559.07056l0 0c1.3951416 -0.23242188 2.3719177 -1.5569458 2.1817017 -2.958435l-7.6063843 -56.048615c-0.09133911 -0.67303467 -0.44506836 -1.2741699 -0.98339844 -1.6711426c-0.5383301 -0.39700317 -1.2171326 -0.5573425 -1.887085 -0.44573975l-10.104095 1.6829834c-1.3951416 0.23236084 -2.3719177 1.5568848 -2.1817322 2.9584045l7.606415 56.048645l0 0c0.19018555 1.4014893 1.4753418 2.3492432 2.8704834 2.1168823z" fill-rule="evenodd"/><path stroke="#cfe2f3" stroke-width="1.0" stroke-linejoin="round" stroke-linecap="butt" d="m304.6582 559.07056l0 0c1.3951416 -0.23242188 2.3719177 -1.5569458 2.1817017 -2.958435l-7.6063843 -56.048615c-0.09133911 -0.67303467 -0.44506836 -1.2741699 -0.98339844 -1.6711426c-0.5383301 -0.39700317 -1.2171326 -0.5573425 -1.887085 -0.44573975l-10.104095 1.6829834c-1.3951416 0.23236084 -2.3719177 1.5568848 -2.1817322 2.9584045l7.606415 56.048645l0 0c0.19018555 1.4014893 1.4753418 2.3492432 2.8704834 2.1168823z" fill-rule="evenodd"/><path fill="#cfe2f3" d="m266.58795 516.94086l0 0c2.3192139 -8.430206 10.69986 -13.475891 18.718689 -11.269867l0 0c3.8507996 1.0593872 7.1014404 3.6835632 9.036835 7.2952576c1.9353638 3.6116943 2.3969727 7.915039 1.2832642 11.963379l0 0c-2.3192139 8.430237 -10.69986 13.475891 -18.718689 11.269897l0 0c-8.01886 -2.2060547 -12.639313 -10.82843 -10.320099 -19.258667z" fill-rule="evenodd"/><path stroke="#cfe2f3" stroke-width="1.0" stroke-linejoin="round" stroke-linecap="butt" d="m266.58795 516.94086l0 0c2.3192139 -8.430206 10.69986 -13.475891 18.718689 -11.269867l0 0c3.8507996 1.0593872 7.1014404 3.6835632 9.036835 7.2952576c1.9353638 3.6116943 2.3969727 7.915039 1.2832642 11.963379l0 0c-2.3192139 8.430237 -10.69986 13.475891 -18.718689 11.269897l0 0c-8.01886 -2.2060547 -12.639313 -10.82843 -10.320099 -19.258667z" fill-rule="evenodd"/></g></svg>